# xmcd
#
# Track frame offsets: 
#        150
#        4814
#        21931
#        41656
#        56502
#        78709
#        94092
#        103784
#        124908
#        140900
#
# Disc length: 1963 seconds
#
# Revision: 0
# Processed by: cddbd v1.5.2PL0 Copyright (c) Steve Scherf et al.
# Submitted via: ExactAudioCopy v1.0b1
#
DISCID=8a07a90a
DTITLE=Stumbling Jay and the Fabulous - Open Road
DYEAR=2011
DGENRE=PowerBlues
TTITLE0=Some Sunny Day Pt. l
TTITLE1=Some Sunny Day Pt. ll
TTITLE2=Free Now
TTITLE3=Looking Around
TTITLE4=Alleycat Blues
TTITLE5=Where have you been?
TTITLE6=Open Road
TTITLE7=Something's Behind me
TTITLE8=Break of Day
TTITLE9=Port de la Tournelle
EXTD=
EXTT0=
EXTT1=
EXTT2=
EXTT3=
EXTT4=
EXTT5=
EXTT6=
EXTT7=
EXTT8=
EXTT9=
PLAYORDER=
